<svg width="24" height="24" xmlns="http://www.w3.org/2000/svg">
 <title/>

 <g>
  <title>background</title>
  <rect fill="none" id="canvas_background" height="402" width="582" y="-1" x="-1"/>
 </g>
 <g>
  <title>Layer 1</title>
  <g id="Layer_2">
   <path fill="#ffffff" id="svg_1" d="m12,5c-6.54,0 -9.76,6.29 -9.89,6.55l-0.23,0.45l0.22,0.45c0.14,0.26 3.36,6.55 9.9,6.55s9.76,-6.29 9.89,-6.55l0.22,-0.45l-0.22,-0.45c-0.13,-0.26 -3.35,-6.55 -9.89,-6.55zm0,12c-4.38,0 -7,-3.7 -7.85,-5c0.85,-1.3 3.47,-5 7.85,-5s7,3.7 7.85,5c-0.85,1.3 -3.47,5 -7.85,5z"/>
   <path fill="#ffffff" id="svg_2" d="m12,8a4,4 0 1 0 4,4a4,4 0 0 0 -4,-4zm0,6a2,2 0 1 1 2,-2a2,2 0 0 1 -2,2z"/>
  </g>
 </g>
</svg>